# AST/ASF file generated using VICON BodyLanguage
# -----------------------------------------------
:version 1.10
:name VICON
:units
  mass 1.0
  length 0.45
  angle deg
:documentation
   .ast/.asf automatically generated from VICON data using
   VICON BodyBuilder and BodyLanguage model FoxedUp or BRILLIANT.MOD
:root
   order TX TY TZ RX RY RZ
   axis XYZ
   position 0 0 0  
   orientation 0 -0 0 
:bonedata
  begin
     id 1 
     name lhipjoint
     direction 0.432694 -0.693742 0.575759 
     length 2.19277 
     axis 0 -0 0  XYZ
  end
  begin
     id 2 
     name lfemur
     direction 0.34202 -0.939693 0  
     length 6.69022  
     axis 0 -0 20  XYZ
    dof rx ry rz
    limits (-160.0 20.0)
           (-70.0 70.0)
           (-60.0 70.0)
  end
  begin
     id 3 
     name ltibia
     direction 0.34202 -0.939693 0   
     length 6.50337   
     axis 0 -0 20   XYZ
    dof rx
    limits (-10.0 170.0)
  end
  begin
     id 4 
     name lfoot
     direction 0.158999 -0.435969 0.885805   
     length 2.70564   
     axis -90 -1.13533e-015 20   XYZ
    dof rx rz
    limits (-45.0 90.0)
           (-70.0 20.0)
  end
  begin
     id 5 
     name ltoes
     direction -0.00592919 0.00964381 0.999936   
     length 1.29929   
     axis -90 -1.13533e-015 20   XYZ
    dof rx
    limits (-90.0 20.0)
  end
  begin
     id 6 
     name rhipjoint
     direction -0.414359 -0.700339 0.581234   
     length 2.17212  
     axis 0 -0 0  XYZ 
  end
  begin
     id 7 
     name rfemur
     direction -0.34202 -0.939693 0   
     length 7.17659   
     axis 0 -0 -20   XYZ
    dof rx ry rz
    limits (-160.0 20.0)
           (-70.0 70.0)
           (-70.0 60.0)
  end
  begin
     id 8 
     name rtibia
     direction -0.34202 -0.939693 0   
     length 6.36669   
     axis 0 -0 -20   XYZ
    dof rx
    limits (-10.0 170.0)
 end
 begin
     id 9 
     name rfoot
     direction -0.137064 -0.37658 0.916188   
     length 2.22351  
     axis -90 1.13533e-015 -20   XYZ
    dof rx rz
    limits (-45.0 90.0)
           (-20.0 70.0)
  end
  begin
     id 10 
     name rtoes
     direction -0.000784077 -0.00289101 0.999996   
     length 1.09522   
     axis -90 1.13533e-015 -20   XYZ
    dof rx
    limits (-90.0 20.0)
  end
  begin
     id 11 
     name lowerback
     direction -0.0176242 0.984912 -0.172157   
     length 1.65301   
     axis 0 -0 0   XYZ
    dof rx ry rz
    limits (-20.0 45.0)
           (-30.0 30.0)
           (-30.0 30.0)
  end
  begin
     id 12 
     name upperback
     direction -0.00218128 0.998776 -0.0494072   
     length 1.67776   
     axis 0 -0 0   XYZ
    dof rx ry rz
    limits (-20.0 45.0)
           (-30.0 30.0)
           (-30.0 30.0)
  end
  begin
     id 13 
     name thorax
     direction 0.00544186 0.999658 0.0255711   
     length 1.72293   
     axis 0 -0 0   XYZ
    dof rx ry rz
    limits (-20.0 45.0)
           (-30.0 30.0)
           (-30.0 30.0)
  end
  begin
     id 14 
     name lowerneck
     direction -0.105325 0.983841 0.144785   
     length 2.14226   
     axis 0 -0 0   XYZ
    dof rx ry rz
    limits (-20.0 45.0)
           (-30.0 30.0)
           (-30.0 30.0)
  end
  begin
     id 15 
     name upperneck
     direction 0.0547957 0.988053 -0.144041   
     length 2.17508   
     axis 0 -0 0   XYZ
    dof rx ry rz
    limits (-20.0 45.0)
           (-30.0 30.0)
           (-30.0 30.0)
  end
  begin
     id 16
     name head
     direction 0.0247488 0.997534 -0.0656813  
     length 2.20048  
     axis 0 -0 0   XYZ
    dof rx ry rz
    limits (-20.0 45.0)
           (-30.0 30.0)
           (-30.0 30.0)
  end
  begin
     id 17 
     name lclavicle
     direction 0.820559 0.567247 -0.0701026  
     length 4.09615  
     axis 0 -0 0   XYZ
    dof ry rz
    limits (-20.0 10.0)
           (0.0 20.0)
  end
  begin
     id 18 
     name lhumerus
     direction 0.999977 -0.0067566 -9.96392e-005   
     length 4.59333   
     axis -180 -30 -90   XYZ
    dof rx ry rz
    limits (-60.0 90.0)
           (-90.0 90.0)
           (-90.0 90.0)
  end
  begin
     id 19
     name lradius
     direction 1 -4.48982e-011 -2.53425e-027   
     length 2.81151   
     axis -180 -30 -90   XYZ
    dof rx
    limits (-10.0 170.0)
  end
  begin
     id 20
     name lwrist
     direction 1 -4.48939e-011 -7.39254e-028   
     length 1.40576   
     axis 2.56395e-016 90 90   XYZ
    dof ry
    limits (-180.0 0.0)
 end
  begin
     id 21 
     name lhand
     direction 1 -4.48939e-011 -1.47851e-027   
     length 0.895651   
     axis 9.43423e-016 90 90   XYZ
    dof rx rz
    limits (-90.0 90.0)
           (-45.0 45.0)
  end
  begin
     id 22 
     name lfingers
     direction 1 -4.48978e-011 -2.95702e-027   
     length 0.722097   
     axis 1.88685e-015 90 90   XYZ
    dof rx
    limits (0.0 90.0)
  end
  begin
     id 23
     name lthumb
     direction 0.707107 -6.34931e-011 0.707107   
     length 1.03679   
     axis -90 45 -9.86935e-015   XYZ
    dof rx rz
    limits (-45.0 45.0)
           (-45.0 45.0)
  end
  begin
     id 24 
     name rclavicle
     direction -0.831414 0.553102 -0.0531864   
     length 4.24872  
     axis 0 -0 0   XYZ 
    dof ry rz
    limits (-10.0 20.0)
           (-20.0 0.0)
  end
  begin
     id 25 
     name rhumerus
     direction -0.999916 -0.000939607 0.0129331  
     length 4.74834   
     axis -180 30 90   XYZ
    dof rx ry rz
    limits (-90.0 60.0)
           (-90.0 90.0)
           (-90.0 90.0)
  end
  begin
     id 26 
     name rradius
     direction -1 -4.48956e-011 -1.31752e-027   
     length 2.79907   
     axis -180 30 90   XYZ
    dof rx
    limits (-10.0 170.0)
  end
  begin
     id 27 
     name rwrist
     direction -1 -4.4897e-011 -7.39254e-028   
     length 1.39954   
     axis 2.56395e-016 -90 -90   XYZ
    dof ry
    limits (-180.0 0.0)
  end
  begin
     id 28
     name rhand
     direction -0.999997 -0.00250697 0.000800838   
     length 0.953304   
     axis 9.43423e-016 -90 -90   XYZ
    dof rx rz
    limits (-90.0 90.0)
           (-45.0 45.0)
  end
  begin
     id 29
     name rfingers
     direction -1 -4.48954e-011 -2.95702e-027   
     length 0.763342   
     axis 1.88685e-015 -90 -90   XYZ
    dof rx
    limits (0.0 90.0)
  end
  begin
     id 30
     name rthumb
     direction -0.709701 -0.00217037 0.7045   
     length 1.10115   
     axis -90 -45 9.86935e-015   XYZ
    dof rx rz
    limits (-45.0 45.0)
           (-45.0 45.0)
  end
:hierarchy
  begin
    root lhipjoint rhipjoint lowerback
    lhipjoint lfemur
    lfemur ltibia
    ltibia lfoot
    lfoot ltoes
    rhipjoint rfemur
    rfemur rtibia
    rtibia rfoot
    rfoot rtoes
    lowerback upperback
    upperback thorax
    thorax lowerneck lclavicle rclavicle
    lowerneck upperneck
    upperneck head
    lclavicle lhumerus
    lhumerus lradius
    lradius lwrist
    lwrist lhand lthumb
    lhand lfingers
    rclavicle rhumerus
    rhumerus rradius
    rradius rwrist
    rwrist rhand rthumb
    rhand rfingers
  end

#!OML:ASF G:\ViconDB\ViconDB\414\test\team2\shane.ASF
:FULLY-SPECIFIED
:DEGREES
33
root -3.11445 15.8151 -41.951 11.0986 -3.78836 -15.1675
lowerback 17.067 -1.93775 2.04563
upperback 8.31027 -2.25357 0.151858
thorax -0.766659 -1.08934 -0.605063
lowerneck -17.087 -1.66118 -9.04315
upperneck 20.2649 2.35742 -9.43021
head 9.38918 -0.670672 -1.47714
rclavicle -3.97569e-014 3.02153e-014
rhumerus -6.83213 2.67887 -49.2727
rradius 40.1061
rwrist 33.6163
rhand -38.481 -21.4333
rfingers 7.12502
rthumb -11.5032 -51.0976
lclavicle -3.97569e-014 3.02153e-014
lhumerus -10.156 -25.5396 70.9376
lradius 34.5041
lwrist -2.62465
lhand -51.3563 10.9255
lfingers 7.12502
lthumb -23.8904 39.4596
rfemur -14.3985 -21.6163 28.4118
rtibia 43.4317
rfoot -35.6957 -6.47598
rtoes -12.6989
lfemur -13.0266 16.2245 4.39649
ltibia 57.1508
lfoot -42.0128 2.13948
ltoes -28.3177
34
root -3.13626 15.8264 -41.9072 11.6252 -5.34847 -15.5523
lowerback 17.3712 -1.53284 1.81284
upperback 8.64553 -1.77321 -0.0592695
thorax -0.554751 -0.854226 -0.777397
lowerneck -17.3838 -1.74471 -9.20491
upperneck 19.9413 2.42939 -10.0349
head 9.35042 -0.704244 -1.65095
rclavicle 6.20208e-014 1.74931e-014
rhumerus -1.06688 2.9473 -49.7598
rradius 39.5598
rwrist 34.7641
rhand -38.6071 -20.7731
rfingers 7.12502
rthumb -11.6248 -50.4306
lclavicle 6.20208e-014 1.74931e-014
lhumerus -8.78642 -25.1438 68.7613
lradius 33.5416
lwrist -2.47151
lhand -51.7826 12.1494
lfingers 7.12502
lthumb -24.299 40.6293
rfemur -14.4119 -20.9715 28.6491
rtibia 43.0471
rfoot -36.1609 -5.42214
rtoes -11.5178
lfemur -14.6464 17.2535 4.66836
ltibia 60.5292
lfoot -40.1125 1.99153
ltoes -28.1419
35
root -3.15161 15.805 -41.8754 12.2088 -6.84979 -15.9526
lowerback 17.6921 -1.13889 1.71234
upperback 8.97313 -1.29026 -0.315233
thorax -0.360612 -0.613497 -1.07278
lowerneck -17.5236 -1.82907 -9.23409
upperneck 19.4171 2.44294 -10.7729
head 9.21447 -0.749486 -1.89285
rclavicle 1.27222e-014 6.36111e-015
rhumerus 4.47081 3.71517 -50.221
rradius 39.6005
rwrist 34.7223
rhand -38.4919 -20.3448
rfingers 7.12502
rthumb -11.5137 -50.0086
lclavicle 1.27222e-014 6.36111e-015
lhumerus -7.05031 -24.518 66.3551
lradius 32.3599
lwrist -2.57435
lhand -51.6989 12.3498
lfingers 7.12502
lthumb -24.2188 40.8404
rfemur -14.585 -20.5986 28.8748
rtibia 42.8512
rfoot -36.4654 -4.9853
rtoes -11.7311
lfemur -16.5689 18.4496 4.94955
ltibia 64.1045
lfoot -37.8014 0.970857
ltoes -26.1421
36
root -3.17021 15.7937 -41.8446 12.8564 -8.11876 -16.3333
lowerback 18.1231 -0.778454 1.49469
upperback 9.25564 -0.866232 -0.511728
thorax -0.266332 -0.408065 -1.22921
lowerneck -17.7831 -1.96931 -9.47617
upperneck 18.9571 2.40225 -11.2515
head 9.11691 -0.813568 -2.02055
rclavicle 0 1.90833e-014
rhumerus 9.91121 4.39786 -50.6469
rradius 39.4959
rwrist 35.6194
rhand -38.4732 -20.3625
rfingers 7.12502
rthumb -11.4956 -50.0272
lclavicle 0 1.90833e-014
lhumerus -5.13266 -23.0839 64.3666
lradius 30.5317
lwrist -4.23522
lhand -51.9409 12.4369
lfingers 7.12502
lthumb -24.4508 40.8964
rfemur -14.8872 -19.938 29.2026
rtibia 42.7647
rfoot -36.682 -4.82613
rtoes -12.2854
lfemur -18.7932 19.8221 5.16103
ltibia 67.5399
lfoot -35.6449 0.152056
ltoes -21.6528
37
root -3.17859 15.785 -41.8058 13.5367 -9.04851 -16.6372
lowerback 18.5662 -0.469728 1.55347
upperback 9.52003 -0.466412 -0.66662
thorax -0.196461 -0.206275 -1.49681
lowerneck -17.9597 -2.22223 -9.74412
upperneck 18.5492 2.27074 -12.015
head 9.03068 -0.950466 -2.25532
rclavicle -1.74931e-014 5.08889e-014
rhumerus 14.9916 4.84545 -50.8206
rradius 39.1128
rwrist 37.752
rhand -38.6408 -20.7296
rfingers 7.12502
rthumb -11.6572 -50.3853
lclavicle 0 1.90833e-014
lhumerus -5.13266 -23.0839 64.3666
lradius 30.5317
lwrist -4.23522
lhand -51.9409 12.4369
lfingers 7.12502
lthumb -24.4508 40.8964
rfemur -15.3954 -19.8569 29.4889
rtibia 42.8336
rfoot -36.8987 -4.41969
rtoes -12.1943
lfemur -21.3477 21.0036 5.18833
ltibia 70.7533
lfoot -34.4378 -0.656739
ltoes -18.3564
38
root -3.1816 15.7814 -41.7606 14.1582 -9.98046 -16.6847
lowerback 19.0295 -0.179351 1.41984
upperback 9.81466 -0.126426 -0.979802
thorax -0.101827 -0.0363652 -1.81519
lowerneck -18.1179 -2.42206 -9.97782
upperneck 18.0636 2.11336 -12.4498
head 8.90215 -1.05323 -2.38117
rclavicle -1.74931e-014 6.99722e-014
rhumerus 19.9645 5.68547 -51.0479
rradius 39.061
rwrist 37.97
rhand -38.716 -20.3668
rfingers 7.12502
rthumb -11.7298 -50.0184
lclavicle 0 1.90833e-014
lhumerus -5.13266 -23.0839 64.3666
lradius 30.5317
lwrist -4.23522
lhand -51.9409 12.4369
lfingers 7.12502
lthumb -24.4508 40.8964
rfemur -15.8627 -19.6736 29.4408
rtibia 42.8849
rfoot -36.977 -4.21827
rtoes -13.0903
lfemur -24.0125 22.1142 4.70852
ltibia 73.525
lfoot -34.0716 -1.13552
ltoes -15.5213
39
root -3.17979 15.7853 -41.7034 14.8807 -10.6144 -16.7243
lowerback 19.4374 0.0775955 1.43546
upperback 10.0339 0.196137 -1.20759
thorax -0.0554702 0.128358 -2.12766
lowerneck -18.2219 -2.73577 -10.4812
upperneck 17.7736 1.85703 -12.7052
head 8.82838 -1.21224 -2.42031
rclavicle 2.22639e-014 6.83819e-014
rhumerus 24.5311 6.60102 -50.9003
rradius 38.9629
rwrist 38.417
rhand -38.797 -20.0796
rfingers 7.12502
rthumb -11.8079 -49.7267
lclavicle 0 1.90833e-014
lhumerus -5.13266 -23.0839 64.3666
lradius 30.5317
lwrist -4.23522
lhand -51.9409 12.4369
lfingers 7.12502
lthumb -24.4508 40.8964
rfemur -16.4291 -19.8506 29.4459
rtibia 42.9137
rfoot -37.023 -4.08951
rtoes -13.8368
lfemur -26.9999 22.9426 4.08105
ltibia 75.8157
lfoot -34.3576 -2.57009
ltoes -15.1971
40
root -3.18051 15.786 -41.6444 15.6226 -11.2034 -16.6228
lowerback 19.8481 0.359574 1.23833
upperback 10.2616 0.511628 -1.54078
thorax 0.00146306 0.284965 -2.43303
lowerneck -18.4953 -3.04913 -10.9267
upperneck 17.621 1.57482 -12.6638
head 8.82437 -1.36353 -2.37656
rclavicle 1.59028e-015 2.22639e-014
rhumerus 28.8807 7.49032 -50.8349
rradius 38.9385
rwrist 38.1675
rhand -38.6933 -18.7779
rfingers 7.12502
rthumb -11.7079 -48.4307
lclavicle 0 1.90833e-014
lhumerus -5.13266 -23.0839 64.3666
lradius 30.5317
lwrist -4.23522
lhand -51.9409 12.4369
lfingers 7.12502
lthumb -24.4508 40.8964
rfemur -17.0737 -19.9099 29.388
rtibia 42.9226
rfoot -36.8947 -4.63276
rtoes -15.3983
lfemur -30.2106 23.7599 3.07066
ltibia 77.6377
lfoot -34.5803 -3.5258
ltoes -14.61
41
root -3.18102 15.7818 -41.5793 16.2353 -11.7259 -16.4078
lowerback 20.3248 0.644474 1.0402
upperback 10.5643 0.825437 -1.94175
thorax 0.112694 0.443503 -2.81379
lowerneck -18.699 -3.37208 -11.2267
upperneck 17.3108 1.21053 -12.6401
head 8.7502 -1.5288 -2.36639
rclavicle -5.24792e-014 -2.70347e-014
rhumerus 32.8968 8.56409 -50.4075
rradius 39.0725
rwrist 37.4927
rhand -38.4232 -18.3232
rfingers 7.12502
rthumb -11.4474 -47.9906
lclavicle 0 1.90833e-014
lhumerus -5.13266 -23.0839 64.3666
lradius 30.5317
lwrist -4.23522
lhand -51.9409 12.4369
lfingers 7.12502
lthumb -24.4508 40.8964
rfemur -17.5574 -19.836 29.131
rtibia 42.9607
rfoot -37.0319 -4.51704
rtoes -15.1759
lfemur -33.4091 24.4466 1.79863
ltibia 78.9857
lfoot -34.9403 -4.0597
ltoes -14.6905
42
root -3.17923 15.7821 -41.5069 16.8158 -11.9046 -16.1143
lowerback 20.825 0.814423 0.879729
upperback 10.9146 0.999121 -2.273
thorax 0.260492 0.533723 -3.11787
lowerneck -19.03 -3.7343 -11.7312
upperneck 17.1179 0.871634 -12.5052
head 8.74233 -1.69744 -2.29124
rclavicle -2.54444e-014 1.90833e-014
rhumerus 36.7377 9.04342 -50.1654
rradius 38.4206
rwrist 39.589
rhand -38.2207 -18.5773
rfingers 7.12502
rthumb -11.2521 -48.2555
lclavicle 0 1.90833e-014
lhumerus -5.13266 -23.0839 64.3666
lradius 30.5317
lwrist -4.23522
lhand -51.9409 12.4369
lfingers 7.12502
lthumb -24.4508 40.8964
rfemur -18.0354 -19.7268 28.85
rtibia 43.0641
rfoot -37.2141 -4.80771
rtoes -15.2815
lfemur -36.7853 24.7572 0.342459
ltibia 79.8908
lfoot -35.1817 -4.36209
ltoes -14.8304
